<svg id="Layer_1" data-name="Layer 1" xmlns="http://www.w3.org/2000/svg" xmlns:xlink="http://www.w3.org/1999/xlink" viewBox="0 0 2705.45 1398.85"><defs><style>.cls-1{fill:none;}.cls-2{fill:#E6F1ED;}.cls-3{fill:#d3e8ef;}.cls-4{fill:#488c8f;}.cls-5{clip-path:url(#clip-path);}.cls-6{opacity:0.14;fill:url(#linear-gradient);}.cls-7{fill:#d3e5e1;}.cls-8,.cls-9{fill:#fff;}.cls-8{opacity:0.9;}</style><clipPath id="clip-path"><path class="cls-1" d="M2.66,1659.39l-1212.14-13.15c-21.58,0-35.56-3.63-35.56-23.87l-3.52-448.91H16.88Z"/></clipPath><linearGradient id="linear-gradient" x1="-620.19" y1="1526.94" x2="-621.48" y2="1310.65" gradientUnits="userSpaceOnUse"><stop offset="0" stop-color="#fff"/><stop offset="0.45" stop-color="#90c1b7"/><stop offset="1"/></linearGradient></defs><rect class="cls-2" x="-0.69" width="2706.14" height="1398.51"/><path class="cls-3" d="M-9.3,254.54C60.33,240.89,121.82,225.21,170.92,210c60.32-18.71,207.72-57.54,263.39-57.54,20.27,0,28.5,7.28,31.8,14.63,5.32,11.82-.61,25.48-7.13,36.68C400.82,303.51,274.75,388.1,172.37,441.52,343.65,397,398.2,324.23,507.63,335c29.59-59.91,116.76-82.59,129.56-148.17,5.63-28.91-6.24-59.39-26.32-80.94s-47.46-35.06-75.61-43.72C451.45,36.37,360.87,50.69,275.57,71S82.37,129.83-5.27,127.31C-5.52,134.81-9.3,254.54-9.3,254.54Z"/><path class="cls-4" d="M2708.3,94.5c-198.37,34.87-393.68,107.92-595.07,105.41-225.35-2.8-447.15-59.12-672.39-66.91-349.44-12.08-584.78-15.53-912.66,105.91-134.89,50-213.72,69.53-523.94,209.4l-4.93,950.2H2705.45Z"/><g class="cls-5"><path class="cls-6" d="M18.46,1425.21l-9.74-.7c-25.7-1.86-36.62-3.56-60.09-7.62-26.73-4.62-58-8.64-89.61-9.52-2.2-.07-4.39-.11-6.59-.14l-.51-.13h-1.3l-1.63,0h-5.89l-1.26,0-1.66,0h-.45l-1.19,0-1,0-2,0-.7,0-2.46.08h-.24l-2.76.11h-.16q-3.66.15-7.18.38l-3.74.26-1,.08-2.84.23-.9.08-3.32.31-.2,0-1,.11c-.87.08-1.74.17-2.6.27l-1.31.14-2.31.27-1.3.15-2.4.3-1.09.14-3.43.46h-.08c-1.11.16-2.22.31-3.32.48l-1.07.16-2.33.35-1.2.18-2.22.35-1.14.18-2.48.41-.81.13-3.22.54-1,.19-.79.13-1.42.25-1.32.23-2,.35-1.32.23-2.12.38-1.14.2-3.05.55c-12.22,2.19-24.52,4.38-38.07,6-2.67.32-5.39.63-8.17.91-16.89,1.7-34.68,2.38-52.1,3.56-9.75.66-19.39,1.47-28.7,2.71s-17.7,2.74-26,4.38c-29.22-3.46-58.58-6.11-87.5-11.17-27.63-4.83-55.63-7.06-84.33-9.68-25.7-2.35-36.62-4.48-60.09-9.58-26.74-5.8-58-10.87-89.61-12-2.2-.07-4.39-.13-6.59-.17l-.52-.16h-1.31l-1.62,0H-728l-1.26,0-1.67,0h-.44l-1.18,0-1,0-2,.07-.69,0-2.47.1h-.23l-2.77.13h0l-3.58.22-.25,0-3.18.23-.31,0-.51,0-2.16.18-.75.08-2.33.22-.34,0-2.6.28-.66.08-2.21.26-.28,0-.11,0c-1,.11-1.93.24-2.88.36l-.52.07-2.85.4-.16,0-2.71.41-.48.07-2.7.44-.53.08-2.69.46h0l-2.7.48-.55.1-2.58.48-.49.1-2.43.47-.28.05-2.6.52-.53.11c-.85.18-1.71.35-2.56.54l-.3.06-2.52.53-.25,0-2.65.58-.35.08-5.37,1.19-.3.06-2.62.59-.56.13-2.24.5-.17,0c-12.23,2.76-24.54,5.51-38.1,7.58q-4,.62-8.14,1.14c-16.9,2.14-34.68,3-52.11,4.47-9.75.83-19.39,1.86-28.69,3.42-17.41,2.92-32.61,7.15-48,11.33h0c-2.89.78-5.8,1.57-8.73,2.34-4.44,1.17-8.93,2.31-13.54,3.39a1227.1,1227.1,0,0,1-127,22.85l-3.55.43h0c-10.5,1.26-20.9,2.31-31,3.13-9.56.77-19.27,1.43-28.93,2.11l-4.11.29c-20.54,1.47-40.84,3.11-59.32,6.18l362.51-.1h0l681.07-.18h74.31l71.41,0h41.64l47.3,0Z"/><path class="cls-7" d="M198.68,1324.16c-17.74-.46-35.36,0-53.14,0l-61.33.08a3.35,3.35,0,0,1-1.41-.2l-.12-.06a.66.66,0,0,1-.32-.33c-.34-1,4.66-2.1,5.79-2,1.29-1.77,4.24-3.09,7.5-3.36a15.2,15.2,0,0,1,7.61,1.31,9.26,9.26,0,0,1,1.2.71l.07,0,.18-.09a13.16,13.16,0,0,1,9.53-.1,3.26,3.26,0,0,1,1.58-3.48c1.46-.89,4.36-1,5.55,0,3.69-4.16,13.73-5.94,20.35-3.13a10.08,10.08,0,0,1,2.77,1.69,2.79,2.79,0,0,1,1.11,2.32,1.29,1.29,0,0,1,0,.19c.07-.29,3.2-2.76,8.86-1.66,2.09.4,3.45,1.84,3,3.1a1.77,1.77,0,0,1-.15.31h.05a10.53,10.53,0,0,1,5.24-.5c1.46.28,2.65,1.12,2.68,2a1.11,1.11,0,0,1-.12.5c5.32.79,10.92.94,16.36,1.32C187.17,1323.15,193,1324,198.68,1324.16Z"/><path class="cls-8" d="M103.26,1319.62c-.54,0-1.35-.26-1.67-.3a23.54,23.54,0,0,0-5.57-.2c-2.77.26-5.44,1.22-6.64,2.7a17.27,17.27,0,0,0-7,1.86c-.34-1,4.66-2.1,5.79-2,1.29-1.77,4.24-3.09,7.5-3.36A15.2,15.2,0,0,1,103.26,1319.62Z"/><path class="cls-9" d="M144.49,1315.19a28.14,28.14,0,0,0-12.1-.78c-4.45.59-8.83,2-11,4.33a1.49,1.49,0,0,1,.31-1.35c-2.58.12-4.75,1.58-4.6,3.08a.89.89,0,0,1-.48-1,3.14,3.14,0,0,0-1.79,2.4,16.58,16.58,0,0,0-4.06-1.09,8.56,8.56,0,0,0-4.29.46l.93-.68a17.5,17.5,0,0,0-3.82.92,3.3,3.3,0,0,1,.94-1.22l.18-.09a13.16,13.16,0,0,1,9.53-.1,3.26,3.26,0,0,1,1.58-3.48c1.46-.89,4.36-1,5.55,0,3.69-4.16,13.73-5.94,20.35-3.13A10.08,10.08,0,0,1,144.49,1315.19Z"/><path class="cls-9" d="M157.46,1319.14a9.52,9.52,0,0,1-.91.64,2.48,2.48,0,0,0-1.35-2.47,5.9,5.9,0,0,0-4.18-.56l1,.76a9.74,9.74,0,0,0-7.15,1.3,3.28,3.28,0,0,1,.73-1.3,1.29,1.29,0,0,1,0,.19c.07-.29,3.2-2.76,8.86-1.66C156.51,1316.44,157.87,1317.88,157.46,1319.14Z"/><path class="cls-8" d="M165.28,1320.93l-.24-.19a5.5,5.5,0,0,0-.77-.53,6.23,6.23,0,0,0-1.92-.71l-.12,0a11,11,0,0,0-2.87-.14q-.65,0-1.26.15l-.62.14a1.82,1.82,0,0,0-.57.18,2.78,2.78,0,0,1,.45-.37,10.53,10.53,0,0,1,5.24-.5C164.06,1319.22,165.25,1320.06,165.28,1320.93Z"/></g><path class="cls-1" d="M7,269.71a593.94,593.94,0,0,1,322.53-86.16c37.93,1,78.63,6.89,106.23,32.92,7.8,7.35,14.6,17.19,13.71,27.88-1.09,13.17-13.05,22.41-24.11,29.65a862,862,0,0,1-151,78.72c-52.1,20.89-108.9,38.44-145.73,80.81"/></svg>