<svg width="38" height="41" viewBox="0 0 38 41" fill="none" xmlns="http://www.w3.org/2000/svg">
<circle cx="11" cy="30" r="11" fill="#6FAAA3"/>
<path d="M36.5918 3.82422C36.6205 3.87631 36.6368 3.88934 36.6409 3.91104C36.9274 4.84439 37.2097 5.77774 37.488 6.6807C26.877 11.278 18.9014 18.9315 13.5325 29.6368C13.5489 29.6585 13.5652 29.6845 13.5775 29.7062C14.9811 29.0768 16.3888 28.443 17.8375 27.7961C17.7106 28.1347 17.6001 28.4256 17.4896 28.7164C17.1091 29.7062 16.7326 30.7004 16.3479 31.6901C16.3152 31.7726 16.2497 31.8725 16.176 31.9029C14.1095 32.8362 12.0389 33.7652 9.94368 34.7073C9.82091 34.399 9.69406 34.0995 9.57538 33.7956C8.82243 31.9246 8.08175 30.0535 7.32879 28.1868C7.26741 28.0349 7.26741 27.909 7.3247 27.757C7.81166 26.4938 8.29454 25.2262 8.79787 23.9108C9.45262 25.5474 10.0869 27.1449 10.7498 28.7946C13.4548 23.0295 17.0395 18.0285 21.4999 13.7438C25.9563 9.45905 30.9528 6.09031 36.5918 3.82422Z" fill="#054B57"/>
<path d="M32.7258 30.1304C34.7825 30.1304 36.4497 28.3617 36.4497 26.18C36.4497 23.9982 34.7825 22.2295 32.7258 22.2295C30.6692 22.2295 29.002 23.9982 29.002 26.18C29.002 28.3617 30.6692 30.1304 32.7258 30.1304Z" stroke="#054B57" stroke-width="2.58655" stroke-miterlimit="10"/>
<path d="M13.553 9.47904C15.6096 9.47904 17.2768 7.71036 17.2768 5.52858C17.2768 3.34681 15.6096 1.57812 13.553 1.57812C11.4963 1.57812 9.8291 3.34681 9.8291 5.52858C9.8291 7.71036 11.4963 9.47904 13.553 9.47904Z" stroke="#054B57" stroke-width="2.58655" stroke-miterlimit="10"/>
</svg>
