<svg width="52" height="52" viewBox="0 0 52 52" fill="none" xmlns="http://www.w3.org/2000/svg">
<ellipse cx="25.7966" cy="25.9613" rx="25.5827" ry="25.6146" fill="#6FAAA3"/>
<g clip-path="url(#clip0_202_368)">
<path d="M25.8483 44.6787C36.1886 44.5764 44.5508 36.3657 44.4909 26.3726C44.4309 16.2772 35.9339 8.09566 25.6535 8.22715C15.2832 8.35864 6.98092 16.5694 7.10081 26.5771C7.2207 36.6287 15.6428 44.7663 25.8483 44.6787ZM25.6835 10.8861C34.4503 10.9154 41.6735 17.6213 41.7185 26.4018C41.7634 35.0216 34.6601 41.8444 25.9232 41.9905C17.2463 42.122 9.93317 35.2407 9.85823 26.5333C9.78331 18.045 16.6469 11.0615 25.6835 10.8861Z" fill="#054B57"/>
<path d="M25.4592 26.5921C23.586 26.5921 21.8176 26.5921 20.0493 26.5921C19.6746 26.5921 19.3 26.5775 18.9253 26.6213C18.191 26.6943 17.6965 27.2349 17.6965 27.9362C17.6965 28.6228 18.206 29.1634 18.9403 29.2365C19.1202 29.2511 19.285 29.2511 19.4648 29.2511C21.7577 29.2511 24.0506 29.2511 26.3434 29.2511C27.6322 29.2511 28.1867 28.7251 28.1867 27.4979C28.1867 24.386 28.2017 21.2741 28.1867 18.1768C28.1867 17.3733 27.7671 16.8473 27.1077 16.7158C26.4633 16.5989 25.7889 16.8911 25.5791 17.4755C25.4742 17.7823 25.4592 18.1476 25.4592 18.4836C25.4443 20.8942 25.4592 23.2902 25.4592 25.7009C25.4592 25.9492 25.4592 26.2122 25.4592 26.5921Z" fill="#054B57"/>
</g>
<defs>
<clipPath id="clip0_202_368">
<rect width="37.3901" height="36.4515" fill="white" transform="matrix(-1 0 0 1 44.4912 8.22852)"/>
</clipPath>
</defs>
</svg>
