<?xml version="1.0" encoding="utf-8"?>
<!-- Generator: Adobe Illustrator 23.0.3, SVG Export Plug-In . SVG Version: 6.00 Build 0)  -->
<svg version="1.1" id="Layer_1" xmlns="http://www.w3.org/2000/svg" xmlns:xlink="http://www.w3.org/1999/xlink" x="0px" y="0px"
	 viewBox="0 0 782.3 252.9" style="enable-background:new 0 0 782.3 252.9;" xml:space="preserve">
<style type="text/css">
	.st0{fill:#FFFFFF;}
</style>
<g>
	<path class="st0" d="M39.6,49.8V0H0v197.8h39.6V90.1c36.8,8.9,64.2,42.1,64.2,81.6c0,9.1-1.5,17.9-4.2,26.1h41
		c1.8-8.4,2.8-17.2,2.8-26.1C143.4,110.3,98.3,59.4,39.6,49.8z"/>
	<path class="st0" d="M519,49.8V0h-39.6v197.8H519V90.1c36.8,8.9,64.2,42.1,64.2,81.6c0,9.1-1.5,17.9-4.2,26.1h41
		c1.8-8.4,2.8-17.2,2.8-26.1C622.8,110.3,577.7,59.4,519,49.8z"/>
	<path class="st0" d="M762.5,48.1c-6.1,0.1-12.1,0.8-18,1.8l-1.8,0.2v0.1c-57.5,10.6-101.2,60.9-101.2,121.4c0,9,1,17.7,2.8,26.1h41
		c-2.7-8.2-4.2-17-4.2-26.1c0-38.6,26.2-71,61.6-80.9v107h39.6V48.1H762.5z"/>
	<path class="st0" d="M359.4,49.9v-0.2l-1.9-0.2c-5.2-0.8-10.4-1.3-15.8-1.5h-22v204.8h39.6V90.2c36.6,9.1,63.8,42.1,63.8,81.5
		c0,9.1-1.5,17.9-4.2,26.1h41c1.8-8.4,2.8-17.2,2.8-26.1C462.8,110.4,418,59.6,359.4,49.9z"/>
	<path class="st0" d="M251.8,162.8c-36.8-8.9-64.2-42.1-64.2-81.6c0-9.1,1.5-17.9,4.2-26.1h-41c-1.8,8.4-2.8,17.2-2.8,26.1
		c0,61.4,45.1,112.3,103.8,121.8v49.9h39.6V55.1h-39.6L251.8,162.8L251.8,162.8z"/>
</g>
</svg>
