<?xml version="1.0" encoding="utf-8"?>
<!-- Generator: Adobe Illustrator 25.2.3, SVG Export Plug-In . SVG Version: 6.00 Build 0)  -->
<svg version="1.1" id="Layer_1" xmlns="http://www.w3.org/2000/svg" xmlns:xlink="http://www.w3.org/1999/xlink" x="0px" y="0px"
	 viewBox="0 0 782.28 252.9" style="enable-background:new 0 0 782.28 252.9;" xml:space="preserve">
<style type="text/css">
	.st0{fill:#04ADBF;}
</style>
<g>
	<path class="st0" d="M39.59,49.85V0H0v197.82h39.59V90.09c36.8,8.92,64.23,42.1,64.23,81.6c0,9.12-1.48,17.9-4.19,26.13h40.97
		c1.82-8.43,2.81-17.16,2.81-26.13C143.4,110.29,98.35,59.37,39.59,49.85z"/>
	<path class="st0" d="M518.97,49.85V0h-39.59v197.82h39.59V90.09c36.8,8.92,64.23,42.1,64.23,81.6c0,9.12-1.48,17.9-4.19,26.13
		h40.97c1.82-8.43,2.81-17.16,2.81-26.13C622.78,110.29,577.72,59.37,518.97,49.85z"/>
	<path class="st0" d="M762.49,48.14c-6.12,0.13-12.09,0.85-17.97,1.84l-1.82,0.19v0.13c-57.49,10.57-101.23,60.89-101.23,121.39
		c0,8.97,0.99,17.7,2.81,26.13h40.97c-2.7-8.23-4.18-17.01-4.18-26.13c0-38.57,26.16-71.04,61.64-80.87v107h39.59V48.14H762.49z"/>
	<path class="st0" d="M359.42,49.92v-0.15l-1.89-0.17c-5.17-0.77-10.4-1.34-15.75-1.45h-21.95V252.9h39.59V90.21
		c36.58,9.08,63.79,42.13,63.79,81.48c0,9.12-1.48,17.9-4.19,26.13H460c1.82-8.43,2.81-17.16,2.81-26.13
		C462.81,110.44,417.97,59.62,359.42,49.92z"/>
	<path class="st0" d="M251.84,162.81c-36.8-8.92-64.23-42.1-64.23-81.6c0-9.12,1.48-17.9,4.19-26.13h-40.97
		c-1.82,8.43-2.81,17.16-2.81,26.13c0,61.4,45.06,112.32,103.81,121.84v49.85h39.59V55.08h-39.59V162.81z"/>
</g>
</svg>
