<svg xmlns="http://www.w3.org/2000/svg" xmlns:xlink="http://www.w3.org/1999/xlink" viewBox="0 0 1552.7 1029.54"><defs><style>.cls-1{isolation:isolate;}.cls-2{opacity:0.24;}.cls-3{fill:#d5dbe1;}.cls-4{fill:#aebbbc;}.cls-5{fill:#b7c1c3;}.cls-6{fill:#99a3a5;}.cls-7{fill:#a6b4bb;}.cls-8{fill:#c9dbdf;}.cls-9{fill:#abbdc1;}.cls-10{fill:#86d3df;}.cls-11{fill:#72b3c2;}.cls-12{fill:#e4e9ec;}.cls-13{fill:#87d3df;}.cls-14{fill:#abddea;}.cls-15{fill:#e3ebee;}.cls-16{fill:#454b87;}.cls-17{fill:none;}.cls-18{fill:#26264c;}.cls-19{opacity:0.2;}.cls-20{fill:#543133;}.cls-21{fill:#372426;}.cls-22{fill:#956c71;}.cls-23{fill:#336076;}.cls-24{fill:#436e8c;}.cls-25{fill:#5589ad;}.cls-26{fill:#4f809f;}.cls-27{opacity:0.3;}.cls-27,.cls-29{mix-blend-mode:multiply;}.cls-28{fill:#37958c;}.cls-29{fill:#316760;opacity:0.7;}.cls-30{fill:#6875ca;}.cls-31{fill:#adb4f7;}.cls-32{fill:#848aee;}.cls-33{fill:#8994d8;}.cls-34{fill:#91936a;}.cls-35{fill:#cecc9f;}.cls-36{fill:#402f45;}.cls-37{fill:#6f4f7a;}.cls-38{fill:#a1a7b2;}.cls-39{fill:#8f99a7;}.cls-40{fill:url(#linear-gradient);}.cls-41{fill:url(#linear-gradient-2);}.cls-42{fill:#d8dde6;}.cls-43{fill:#acb9c9;}.cls-44{fill:url(#linear-gradient-3);}.cls-45{fill:url(#linear-gradient-4);}.cls-46{fill:#e89962;}.cls-47{fill:url(#linear-gradient-5);}.cls-48{fill:url(#linear-gradient-6);}.cls-49{fill:#fff;}.cls-50{fill:#f2a977;}.cls-51{fill:#518764;}</style><linearGradient id="linear-gradient" x1="-11303.53" y1="1179.36" x2="-11258.71" y2="1317.04" gradientTransform="matrix(-0.99, 0.12, 0.12, 0.99, -10679.01, 1292.25)" gradientUnits="userSpaceOnUse"><stop offset="0" stop-color="#f5c55d"/><stop offset="1" stop-color="#e2775e"/></linearGradient><linearGradient id="linear-gradient-2" x1="-11287.49" y1="1174.15" x2="-11242.66" y2="1311.84" gradientTransform="matrix(-0.99, 0.12, 0.12, 0.99, -10679.01, 1292.25)" gradientUnits="userSpaceOnUse"><stop offset="0" stop-color="#7f3e73"/><stop offset="1" stop-color="#2e1a42"/></linearGradient><linearGradient id="linear-gradient-3" x1="-2506.48" y1="-3158.22" x2="-2426.33" y2="-2974.55" gradientTransform="matrix(0.78, 0.62, -0.62, 0.78, 704.35, 4485.78)" xlink:href="#linear-gradient"/><linearGradient id="linear-gradient-4" x1="-2513.7" y1="-3228.71" x2="-2504.46" y2="-3207.53" gradientTransform="matrix(0.78, 0.62, -0.62, 0.78, 704.35, 4485.78)" xlink:href="#linear-gradient-2"/><linearGradient id="linear-gradient-5" x1="-13103.01" y1="895.18" x2="-13103.01" y2="872.03" gradientTransform="matrix(-1, 0, 0, 1, -12439.22, 0)" gradientUnits="userSpaceOnUse"><stop offset="0" stop-color="#9d3b6b"/><stop offset="1" stop-color="#70323e"/></linearGradient><linearGradient id="linear-gradient-6" x1="-13192.48" y1="900.36" x2="-13192.48" y2="868.17" xlink:href="#linear-gradient-5"/></defs><g class="cls-1"><g id="Layer_1" data-name="Layer 1"><g class="cls-2"><rect class="cls-3" x="288.93" y="468.46" width="560.11" height="346.44" transform="translate(1131.93 1288.66) rotate(-179.46)"/><rect class="cls-4" x="286.96" y="493.08" width="566.62" height="22.42" transform="translate(1135.79 1013.88) rotate(-179.46)"/><rect class="cls-5" x="46.11" y="464.71" width="243.58" height="346.44" transform="translate(329.83 1277.4) rotate(-179.46)"/><rect class="cls-6" x="46.05" y="489.3" width="240.93" height="22.42" transform="translate(328.33 1002.55) rotate(-179.46)"/><rect class="cls-7" x="578.01" y="406.68" width="25.56" height="29.36" transform="translate(1177.61 848.22) rotate(-179.46)"/><rect class="cls-7" x="355.16" y="404.59" width="25.56" height="29.36" transform="translate(731.95 841.97) rotate(-179.46)"/><rect class="cls-8" x="365.77" y="299.1" width="278.46" height="106.77" transform="translate(1006.68 709.69) rotate(-179.46)"/><rect class="cls-9" x="330.75" y="297.64" width="35.03" height="106.77" transform="translate(693.22 705.29) rotate(-179.46)"/><rect class="cls-10" x="290.7" y="435.93" width="576.26" height="32.62" transform="translate(1153.4 909.87) rotate(-179.46)"/><rect class="cls-11" x="42.53" y="432.07" width="248.94" height="32.62" transform="translate(329.79 898.31) rotate(-179.46)"/><rect class="cls-12" x="341.57" y="535.26" width="470.35" height="279.71" transform="translate(1147.15 1355.6) rotate(-179.46)"/><polygon class="cls-13" points="613.02 555.16 794.99 556.86 794.52 606.69 744.26 557.58 613.02 555.16"/><polygon class="cls-13" points="374.44 811.92 515.51 813.24 364.77 665.94 365.83 552.85 622.36 814.24 763.43 815.56 497.06 555.26 365.83 552.85 613.02 555.16 793.28 738.83 792.55 817 363.39 812.98 363.51 800.78 374.44 811.92"/><polygon class="cls-14" points="763.43 815.56 622.36 814.24 365.83 552.85 497.06 555.26 763.43 815.56"/><polygon class="cls-14" points="744.26 557.58 794.52 606.69 793.28 738.83 613.02 555.16 744.26 557.58"/><polygon class="cls-14" points="374.44 811.92 363.51 800.78 364.77 665.94 515.51 813.24 374.44 811.92"/><rect class="cls-15" x="677.83" y="556.38" width="31.22" height="258.05" transform="translate(1380.43 1377.27) rotate(-179.46)"/><rect class="cls-15" x="561.05" y="555.29" width="31.22" height="258.05" transform="translate(1146.89 1373.99) rotate(-179.46)"/><rect class="cls-15" x="448.06" y="554.23" width="31.22" height="258.05" transform="translate(920.93 1370.82) rotate(-179.46)"/><rect class="cls-12" x="87.21" y="564.53" width="151.52" height="116.5" transform="translate(320.1 1247.05) rotate(-179.46)"/><rect class="cls-14" x="103.89" y="586" width="116.92" height="78.05" transform="matrix(-1, -0.01, 0.01, -1, 318.85, 1251.53)"/></g><path class="cls-16" d="M664,900.74c4.56-1.33,8.55-7.1,13.16-7.53a2,2,0,0,0,2.12-2,11.36,11.36,0,0,1,2-1.71,2.15,2.15,0,0,0-.16-1.19c-.1-.19-.09-3.58-1.11-4.27a7.33,7.33,0,0,0-3.3-1.53c-1.31-.08-2.58.71-3.85,1.29-2.94,1.32-6,.31-8.89,1.85-.92.5-7.47.13-7.47-.94-.48,3.54-1.42,8.49-1.72,12.31a.6.6,0,0,1,.22.18C657.58,900.36,660.86,901.64,664,900.74Z"/><path class="cls-17" d="M681.82,889.1l-.6.4a3,3,0,0,1-.06.43c-.56,3.05-.31,2-2,2.77-3.56,1.58-6.75,5.09-10.1,7.81s-7.11,4.65-10.64,2.88a16.19,16.19,0,0,1-2.49-1.73,2.9,2.9,0,0,1-1.14-1.54,7,7,0,0,1-.12-2.21c0-.28,0-.59.06-.89-.81-.42-1.66,2.05-1.89,3.77a11.44,11.44,0,0,0,.75,5.42c1.36,3.42,3.93,5,6.14,3.82,1.17-.64,2.21-2,3.39-2.54s2.41-.35,3.62-.4c2.93-.12,5.77-1.83,8.46-4a16.86,16.86,0,0,0,4.59-5.15A17.31,17.31,0,0,0,681.82,889.1Z"/><path class="cls-18" d="M654.78,900.12a2.9,2.9,0,0,0,1.14,1.54,16.19,16.19,0,0,0,2.49,1.73c3.53,1.77,7.3-.17,10.64-2.88s6.54-6.23,10.1-7.81c1.7-.76,1.45.28,2-2.77a3,3,0,0,0,.06-.43,11.36,11.36,0,0,0-2,1.71,2,2,0,0,1-2.12,2c-4.61.43-8.6,6.2-13.16,7.53-3.1.9-6.38-.38-9-3.54a.6.6,0,0,0-.22-.18c0,.3-.05.61-.06.89A7,7,0,0,0,654.78,900.12Z"/><g class="cls-19"><path class="cls-20" d="M958,704.17c-.94-4.54-5.79-7.79-10.94-7.54a10.45,10.45,0,0,0-5.36,1.76c-2.94-1.62-6-2.45-8.63-2-13.93,2.27-27-4.14-34.63-16.64,1.56,13.62,17.18,53.75,42,45,5.63-2,8.88-4.64,10.44-7.52C955,713.11,958.57,707.2,958,704.17Z"/><path class="cls-21" d="M955.68,700a15.11,15.11,0,0,1-1.26,2.78c-6.59,11-26.09,11-43.56,0a59.24,59.24,0,0,1-7.3-5.45c6.71,15.86,19.52,33.49,36.79,27.4,5.63-2,8.88-4.64,10.44-7.52,4.2-4.1,7.78-10,7.16-13A8.58,8.58,0,0,0,955.68,700Z"/><polygon class="cls-22" points="951.13 714.21 957.14 715.65 956.47 709.36 951.85 709.41 951.13 714.21"/><path class="cls-20" d="M909.45,698.3s11.23,30.36,29.09,20.14S909.45,698.3,909.45,698.3Z"/><polygon class="cls-21" points="928.65 724.26 932.42 732.23 933.39 723.93 928.65 724.26"/><polygon class="cls-21" points="934.14 723.25 934.5 732.11 938.61 724.9 934.14 723.25"/><path class="cls-21" d="M951.31,705.81a3.09,3.09,0,1,0-2.85,3.54A3.2,3.2,0,0,0,951.31,705.81Z"/><path class="cls-20" d="M949.79,705.4a2.09,2.09,0,1,0-1.93,2.39A2.17,2.17,0,0,0,949.79,705.4Z"/></g><path class="cls-20" d="M705.52,659.6c-.73-4.58,2.66-9.41,7.56-11.08a10.25,10.25,0,0,1,5.61-.34c2.18-2.6,4.78-4.53,7.34-5.09,13.8-3,23.72-13.85,26.49-28.35,3.31,13.29,2.79,56.52-23.38,57.53-6,.23-9.92-1-12.39-3.15C711.41,666.85,706,662.66,705.52,659.6Z"/><path class="cls-21" d="M706.18,654.87a13.47,13.47,0,0,0,2.14,2.13c10,7.86,28.21.64,40.64-16.12a61.09,61.09,0,0,0,4.9-7.79c-.71,17.28-6.49,38.48-24.72,39.18-6,.23-9.92-1-12.39-3.15-5.34-2.27-10.76-6.46-11.23-9.52A8.61,8.61,0,0,1,706.18,654.87Z"/><polygon class="cls-22" points="715.39 666.45 710.29 670.01 708.71 663.9 713.04 662.24 715.39 666.45"/><path class="cls-20" d="M748.7,636.18s.16,32.48-20.08,29.55S748.7,636.18,748.7,636.18Z"/><polygon class="cls-21" points="741.85 661.94 737.46 677.48 736.45 669.18 741.85 661.94"/><polygon class="cls-21" points="735.69 668.5 735.39 677.36 731.24 670.17 735.69 668.5"/><path class="cls-21" d="M712.28,658.67a3.28,3.28,0,0,1,2-4.12,3.15,3.15,0,0,1,3.91,2.24,3.28,3.28,0,0,1-2,4.13A3.14,3.14,0,0,1,712.28,658.67Z"/><path class="cls-20" d="M713.56,657.73a2.21,2.21,0,0,1,1.34-2.79,2.12,2.12,0,0,1,2.63,1.52,2.21,2.21,0,0,1-1.33,2.78A2.12,2.12,0,0,1,713.56,657.73Z"/><polygon class="cls-23" points="951.49 794 964.1 794 950.23 866.11 945.81 866.11 951.49 794"/><polygon class="cls-23" points="741.23 797.25 728.62 797.25 742.5 863.09 746.91 863.09 741.23 797.25"/><path class="cls-24" d="M985.85,790.67C880,799.5,821,801.81,719.64,795.43l-.94,13.82,267.62-6.2Z"/><rect class="cls-24" x="718.7" y="832.6" width="264.32" height="4.76"/><polygon class="cls-24" points="983.17 787.99 995.78 787.99 981.91 866.11 977.5 866.11 983.17 787.99"/><polygon class="cls-24" points="980.02 792.24 992.63 792.24 992 716.61 987.58 716.61 980.02 792.24"/><polygon class="cls-24" points="710.81 796.86 723.42 796.86 708.29 720.65 703.88 720.65 710.81 796.86"/><polygon class="cls-24" points="719.01 794.23 706.4 794.23 720.27 866.11 724.68 866.11 719.01 794.23"/><path class="cls-25" d="M674.88,810.2c78.17,10.48,264.16,8.49,365-5.49l-.63,10.48S830,839.65,673.62,820.68Z"/><path class="cls-25" d="M681.18,787.24c67.46,15,258.49,10.48,348.64-5l1.89,5s-192.28,28.45-353.68,6Z"/><path class="cls-25" d="M678,795.23c67.46,15,265.42,10,355.58-5.5l5.67,12S830,826.18,673.62,807.2Z"/><path class="cls-26" d="M1006.5,766.43c-118.53,13.15-187.25,13.7-314,3.83V784c121.68,12.06,211.2,7.67,314-3.83Z"/><path class="cls-26" d="M1005.86,749.81c-121.52,6.88-193,4.23-313.33,0v13c116.63,15.55,209.94,8.81,313.33,0Z"/><path class="cls-26" d="M1005.86,730.35c-121.52,6.47-193,4-313.33,0v12.21c105.58,9.81,201.18,6,313.33,0Z"/><g class="cls-27"><path class="cls-28" d="M1005.86,730.35l-9.49.49a34.19,34.19,0,0,1,3.13,12.06l6.36-.34Z"/><path class="cls-28" d="M1005.86,749.81l-6.75.38a37.29,37.29,0,0,1-5.32,13.6l12.07-1Z"/><path class="cls-28" d="M992.05,723.47l0-6.86h-4.42l-.12,1.26A56.65,56.65,0,0,1,992.05,723.47Z"/><path class="cls-28" d="M991.87,810l.67-3.72c29-2.47,46.74-4.54,46.74-4.54l-5.67-12c-11.46,2-24.65,3.77-39.09,5.37l.59-3.32c23-2.53,36.6-4.54,36.6-4.54l-1.89-5c-11,1.89-23.59,3.62-37.23,5.17l-.05-5.77q6.94-.75,14-1.52v-13.7c-4.78.53-9.46,1-14.08,1.52v-2.06c-4.38,6.26-10.66,12.18-18.57,17.68l7.12-.71-.59,5.87q-8.57.87-17.58,1.64c-16.33,9-37.38,16.49-61.68,21.89,17.5-.81,34-1.77,49.16-2.79L950,813c-21.94,1.31-44.89,2.28-68,2.92a439.55,439.55,0,0,1-71.61,5.7,435,435,0,0,1-78.11-6.83l0,.14q-6-.29-11.75-.64l-.15-1.89a273.56,273.56,0,0,1-43.86-13.29l-3,8.07c11.73,1.43,23.76,2.61,36,3.57l.56,2.87c-13.28-.94-25.18-2.09-35.27-3.44l-1.26,10.48c12.57,1.53,25.49,2.77,38.61,3.77l8,41.66h4.41l-2.26-28.75h14.65l5.42,25.73h4.42l-2.22-25.73H948.08l-2.27,28.75h4.42l5.53-28.75h23.82l-2.08,28.75h4.41l8.19-46.17c30.44-2.56,49.18-4.75,49.18-4.75l.63-10.48C1025.46,806.71,1009.25,808.47,991.87,810ZM722,832.6l-.59-7.49q6.59.43,13.21.81l1.41,6.68Zm226.41,0H744.28l-.54-6.22c73,3.45,148.86.42,205.47-3.36Zm31.48,0H956.67l2-10.22c7.83-.56,15.24-1.12,22.15-1.67Zm1.58-21.76c-6.83.54-13.83,1-20.94,1.51l.7-3.64c7.23-.52,14.09-1,20.51-1.56Z"/></g><path class="cls-29" d="M870.25,826.93l.18-10.7c-44.88,1-89.6.76-127.63-.81l-.22-2.57c43.1,2.08,87.25,1.88,127.9.6l.19-11.61-11.86-5.93c-27.43.66-54.65.7-79.83.06l-43.71,6.17-34.75-3,14.8,12.09,16.47,1.07.53,2.53,0,.14h-.5l14.6,11.57C788.24,828.39,830.89,828.17,870.25,826.93Z"/><path class="cls-29" d="M681.17,786.73l8.16,8.15,24.79,2.73c.1-1.21,10.16-2,5.13-2.73C707.47,793.07,681.17,786.73,681.17,786.73Z"/><polygon class="cls-30" points="679.26 787.13 713.91 793.58 692.15 781.08 679.26 787.13"/><polygon class="cls-31" points="710.69 792.37 731.04 827.22 790.28 808.49 824.73 813.32 843.47 805.46 853.14 796.4 845.28 774.64 821.71 792.77 787.86 784.31 731.04 791.56 692.15 781.08 710.69 792.37"/><polygon class="cls-32" points="731.04 827.22 730.43 791.96 711.09 792.37 731.04 827.22"/><polygon class="cls-32" points="790.28 808.49 824.73 813.32 843.47 805.46 821.71 792.77 787.86 784.31 790.28 808.49"/><polygon class="cls-33" points="734.87 794.18 735.27 821.58 737.69 820.98 736.88 794.18 734.87 794.18"/><polygon class="cls-33" points="740.51 792.37 740.91 819.77 743.33 819.16 742.52 792.37 740.51 792.37"/><polygon class="cls-33" points="745.75 790.96 746.15 818.36 748.57 817.75 747.76 790.96 745.75 790.96"/><polygon class="cls-33" points="772.75 788.74 774.76 810.7 777.14 810.22 774.76 788.74 772.75 788.74"/><polygon class="cls-33" points="779.19 786.32 781.21 808.28 783.59 807.8 781.21 786.32 779.19 786.32"/><polygon class="cls-33" points="750.58 793.78 751.99 808.69 771.74 804.26 770.33 790.96 750.58 793.78"/><path class="cls-34" d="M1109.41,254.43a89.45,89.45,0,0,0,11.49.89c46.71.38,56.23-43,113-45.59,48.45-2.21,115.33,11.66,139.62,42.86,18.68,24,46.87,88-6,100.76,85.43-20.64,185.87,93.45,72.27,108.51,24.18,22.05,76.17,54.36,30.46,80.51-39.09,22.35-123.7,6.1-135.82-27.1,41.38-2.81,21.79,30.81-9.29,37.53-51.33,11.09-107.48-24.58-135.69-49.09-25.38,17.72-82.37,67-118.16,26.74-26.65,13.6-40,34.56-78.46,39.34-53.66,6.67-48.57-21.69-85.37-28-41.18-7.1-84.49,24.39-128.66,7-31-12.19-54-62.46-20.59-79.26-34.5-5.57-44.5-43.73-25.2-62.46,31.72-30.82,105.38-3.62,129.23-21.65,26.86-20.32-10.29-56.27,12.92-78.81,25.33-24.6,49.17-3.86,81.66-9.22,40.92-6.74,35.76-44.14,73.78-53.59C1055.9,237.5,1083.07,250.78,1109.41,254.43Z"/><path class="cls-35" d="M1268.17,377.22a80.52,80.52,0,0,1-8.77,20.43c-8.89,14.7-23.27,27.64-43.14,28.49,18.61,11.2,8.08,43.15-6,54.52-8.09,6.54-23.14,12.19-34.24,13-6.46.5-17.89-4.66-23.14-2.73-3.43,1.26-6.23,9.89-8.79,12.93A51.9,51.9,0,0,1,1114.28,521c-20.48,3.63-45.27-1.73-51.88-20-19.54,13.3-25.64,23.44-53.71,21.16-20.87-1.69-47.33-10.12-46.91-30.83a121.25,121.25,0,0,1-32,19c-15.86,6.26-33.38,8.85-50.53,4.64-16.23-4-32.27-20.84-32.76-36.23a21.34,21.34,0,0,1,.14-3.3c.73-6,4.06-11.57,11-15.87-15,2.81-26.65.73-35.09-4.31-20.66-12.34-21.83-42.42-3.64-62.06-22.5-8.47-43-28.09-40.42-50.06,3.33-28.07,35.81-41.42,64.29-35.71-.62-9.88-10.47-18.69-12.22-28.84-2.82-16.3,8.37-34.59,21.29-46.36,19-17.33,42.14-26.5,70.23-27.1,18.67-.4,51.59-1.86,59.68,15.75,1.74-10.67,12.25-22.59,19.94-28.74,14.35-11.46,35.6-13.72,54.68-14.51,13.65-.56,28.16-.07,40.74,4.44a52,52,0,0,1,11.23,5.57,46.64,46.64,0,0,1,10.15,9.24,87.15,87.15,0,0,1,26.19,27.63c22.77-36.58,86.62-12.63,107.82,13.52,12.67,15.64,18.39,31.76,15.7,47.59.59,12.8-5.22,23.85-17.15,31.46-10.24,12.89-2.24,14.52,9.31,28C1268.88,355.22,1271.48,364.94,1268.17,377.22Z"/><path class="cls-36" d="M930.63,493.8a9.8,9.8,0,0,1,1.36-.37c7.32-1.44,12.62,10.9,16.35,13.75,5.27,4,10.37,8.5,16.28,12a117,117,0,0,0,19.43,9.15,98,98,0,0,0,10.77,3.28c.36.09,9,1.59,8.7.91-1.14-2.42-2.09-5-3.36-7.36-2.45-4.55-4.22-9.31-6.63-13.86-3.36-6.36-8.29-12.24-12.27-18.38-2.38-3.68-6.68-8-8.51-12.26h7.9c1.1,2.47,2.35,4.9,3.7,7.29,5.7,10.13,13.14,19.59,19.76,29.36,11.51,17,23.91,40.61,46.81,50.15,2.25-16.13-10.42-31-15-46.57-2.8-9.63-7.68-18.82-10-28.56-.47-2-2.07-7.11-2.36-11.67h9.22c4.22,9.89,7.39,20.18,10.61,30.24,5.69,17.74,13.43,34.91,19.27,52.55,8.85,26.7,19,53,28.12,79.55a185.8,185.8,0,0,1,5.58,20.94c.81,3.74.55,9.58,3.33,12.39,38.27-21.73,32.41-60.5,27.32-92.28-3.72-23.27-9.17-46.29-14.09-69.42-1.93-9.11-4.68-18.34-4.1-27.64a40.64,40.64,0,0,1,.81-6.33h8.12c-.75,6.34,2,13,3.56,18.76,4.86,18,11.76,35.89,15,54.05,2.56,14.33,5.44,28.91,8.77,43.11,2.31,9.94-.39,20.34,3,30.36,11.57-3.17,21.86-23.39,27.44-31.73,7.77-11.59,16-23,23.92-34.47,15.38-22.31,27.7-46.92,45.67-68.05,3.15-3.7,6.35-8,9.95-12h10.77a94,94,0,0,1-6.27,9.34c-5.1,7.08-11.1,13.75-16,20.9q-15.69,22.8-29.84,46c-20.79,34.29-48,66.19-68.85,100.54-24.1,39.61-27.46,78.48-21.25,121,4.57,31.33,12.52,62.58,15.93,93.92.54,4.92,1,9.88,1.36,14.83-10.58.07-21.11.33-31.58,1.17-4.71-.21-9.43-.43-14.15-.62,1-9.9,1.72-19.83,3.35-28.32,4.62-24,1.58-46.16-3.36-70.07-3.48-16.8-4.89-33.73-7.69-50.59-2.27-13.76-6.86-29.85-6-43.69.92-15.59,0-30.11-4.33-45.32-7.11-24.65-17.06-46.5-33.45-68.26-12.86-17.08-25.42-33.38-49-42.42-19.08-7.32-38.15-15-52.35-27.57C939.54,509.16,921.84,496.9,930.63,493.8Z"/><path class="cls-37" d="M1102.24,724.39c-1,.27-1.79.72-2.8.94a28.9,28.9,0,0,1-5.5.55,32.75,32.75,0,0,1-6.43-.41c3.31.89,6.36,1.7,9.92,1.06C1099.47,726.17,1101.43,725.41,1102.24,724.39Z"/><path class="cls-37" d="M1123.59,747.82c-1.59.46-3,1.21-4.67,1.58a50.1,50.1,0,0,1-9.17.91,54.54,54.54,0,0,1-10.71-.69c5.51,1.48,10.61,2.84,16.53,1.77C1119,750.78,1122.23,749.52,1123.59,747.82Z"/><path class="cls-37" d="M1118.72,779.56c-1.59.46-3,1.21-4.67,1.58a50.1,50.1,0,0,1-9.17.91,54.54,54.54,0,0,1-10.71-.69c5.51,1.48,10.61,2.84,16.53,1.77C1114.1,782.52,1117.36,781.26,1118.72,779.56Z"/><path class="cls-37" d="M1135.56,801.09c-1.58.46-3,1.21-4.67,1.58a49.93,49.93,0,0,1-9.17.91,54.49,54.49,0,0,1-10.7-.69c5.51,1.49,10.6,2.84,16.52,1.77C1131,804.05,1134.2,802.8,1135.56,801.09Z"/><path class="cls-37" d="M1117,699c-1,.27-1.79.73-2.8.95a30.61,30.61,0,0,1-5.5.55,32.75,32.75,0,0,1-6.43-.42c3.31.89,6.36,1.7,9.92,1.07C1114.2,700.76,1116.16,700,1117,699Z"/><path class="cls-37" d="M1096.41,684.16c-1,.28-1.79.73-2.8,1a30.61,30.61,0,0,1-5.5.55,32.75,32.75,0,0,1-6.43-.42c3.31.89,6.36,1.71,9.92,1.07C1093.64,685.94,1095.6,685.18,1096.41,684.16Z"/><path class="cls-35" d="M1268.17,377.22a80.52,80.52,0,0,1-8.77,20.43c-6.59-5.18-11-13.94-18.11-18.24-6.66-4-16.39-3.36-23.49-7.64-12.75-7.69-21-26.76-6.5-37.06-22.79,16.16-76-1-54.54-29-21.56,5.87-45.55,11-68.42,10.34-7.63-.2-40.23-4.28-37.12-16.34-3,11.62-28.91,40.45-39.77,19.55,13.17,10.13,1,41.85-11.65,49.4-16,9.59-36.57,1.39-54.61,3.78,1.51,25.17,30.59,44.27,30.32,69.55-.3,27.61-24.47,32.28-50.41,36.58-25.62,4.26-10.58,18.5,4.64,31.8-15.86,6.26-33.38,8.85-50.53,4.64-23.83-5.84-47.25-39.46-21.66-55.4-51.55,9.69-64.36-38.7-38.73-66.37-22.5-8.47-43-28.09-40.42-50.06,3.33-28.07,35.81-41.42,64.29-35.71-.62-9.88-10.47-18.69-12.22-28.84-2.82-16.3,8.37-34.59,21.29-46.36,19-17.33,42.14-26.5,70.23-27.1,18.67-.4,51.59-1.86,59.68,15.75,1.74-10.67,12.25-22.59,19.94-28.74,14.35-11.46,35.6-13.72,54.68-14.51,18-.73,37.39.34,52,10a46.64,46.64,0,0,1,10.15,9.24,87.15,87.15,0,0,1,26.19,27.63c22.77-36.58,86.62-12.63,107.82,13.52,12.67,15.64,18.39,31.76,15.7,47.59.59,12.8-5.22,23.85-17.15,31.46-10.24,12.89-2.24,14.52,9.31,28C1268.88,355.22,1271.48,364.94,1268.17,377.22Z"/><path class="cls-35" d="M931.25,337.17A43.22,43.22,0,0,0,913.38,339a47.21,47.21,0,0,0-15.29,8.18,45.72,45.72,0,0,0-10.69,12.13,37,37,0,0,0-5.16,14.55,28.4,28.4,0,0,0,.9,11.49,42.1,42.1,0,0,0-11.46,7.44,41.32,41.32,0,0,0-13.21,26.53,36.87,36.87,0,0,0,1.35,14.12,30.53,30.53,0,0,0,7.42,12.66A29.78,29.78,0,0,0,881,453.85a43.7,43.7,0,0,0,16.13.87,42.32,42.32,0,0,1-15.52-2.24A24.81,24.81,0,0,1,865,432.57a32.58,32.58,0,0,1,.45-12.52c3.6-15.87,16.25-24.83,34.71-27.74-4.53-9.09-5.52-18.94-.18-27.79a46.94,46.94,0,0,1,18.19-17.28,42.22,42.22,0,0,1,13.16-4.35,47.17,47.17,0,0,1,7.53-.59,77.55,77.55,0,0,1,8,.45A35.43,35.43,0,0,0,931.25,337.17Z"/><path class="cls-35" d="M1097,182.1c-46-3.68-102.28,4.21-99.82,49.63-13.86-9.38-30.4-20.45-49.83-16.74-5.91,1.13-10.78,5.13-9.57,8.29-19.92-6-53.44,4.06-64.81,14.85-12.32,11.69-22.13,34.76-20,50.58,1.52,11.59,18.24,18.5,18.88,27.46-11.42.46-63.08-5.12-65.39,9.06-2.23,13.67,33,9,41.61,7.86-18.36,5.06-41.31,19.28-33.71,38.31,2.95,7.4,17.84,18.67,26.6,20.49,5.45,1.13,9.56-1.28,15.31-1.2-15.55,9-37.52,23.06-40.19,39.05-1.16,7,1.31,16.79,6.4,25.55-20.66-12.34-21.83-42.42-3.64-62.06-22.5-8.47-43-28.09-40.42-50.06,3.33-28.07,35.81-41.42,64.29-35.71-.62-9.88-10.47-18.69-12.22-28.84-2.82-16.3,8.37-34.59,21.29-46.36,19-17.33,42.14-26.5,70.23-27.1,18.67-.4,51.59-1.86,59.68,15.75,1.74-10.67,12.25-22.59,19.94-28.74,14.35-11.46,35.6-13.72,54.68-14.51C1069.94,177.1,1084.45,177.59,1097,182.1Z"/><path class="cls-35" d="M1246.93,317.14c3.33-19.7,32.31-28.48,58.81-27.43,16.28.65,26.42,7.06,41,9.71s26.44-2.16,41.31-2c25.41.3,53.35,12.25,66.76,26.95,6.4,7,12,38.81-15.55,31.21,107.35,29.64-8.37,100.61-60.29,39.24,10.12,28.29-42.11,34.32-71.59,35.7-50.78,2.37-79.43-15.75-98.62-47.24-74.85,43.93-62-88.92-7.45-45.07-14.73-5.45-16.63-23.53-2.7-29.68,9.18-4.06,49.06-.38,48.06,10.22C1246.77,318.22,1246.84,317.68,1246.93,317.14Z"/><path class="cls-34" d="M1170.9,907c17.36-3.39,41.12-6,56-13-12.78,1.64-26.34,4.37-39.72,4.13,9.08-3.68,22.75-8.55,21.82-17.13-10.22-1.26-18,9.75-27.33,12.47-4.14-11.65,19-26.77,10.16-38.58-13.58,6.19-11.75,26.23-22.68,35.43-1.13-8.2,1.78-21.27-3.55-28.76-15.56,2.53-12,26.39-16,35.12.62-3.5-.28-19.71-8.06-19.66-8.43,0-9.55,11.21-11.69,15.43-.13-3.9-.31-7.82-3.37-11.13-4.26,2-7.5,5.15-12.84,6.15-6.15-9.27,15.09-26.22-1.4-34-17.39-8.17-11.83,24.72-14.42,29.44-1.77-6.76-5.85-18.82-15.54-21.38-1.76,4.75-.93,9.75,1.2,14.37-4.87-3.44-10.22-7.12-16.76-9-1.39,3.68,1.2,7.86,3.68,11.17-4.89-2.77-9.27-6.94-16-7.93-2.42,3.43-1.49,8.41,1.07,11.91-9.93.52-47.55-5.41-51.43,3.56,7.26,3.07,16.22,4.44,23.56,6.87-10.4,3.78-42.35-2.16-47.49,5.66,4.67,4,15.24,4.33,22.25,4.92-20.14,3.5-45.94-2-65.76,4.63,9.77,9.59,57.48,5.47,71,2.95-.6.2-3.39,1.86-4.91,2.4,10.51,2.92,23,1.36,33.65,3.76a28.13,28.13,0,0,1-3.89,1.29c32.6-8,63-10.93,96.71-8.49C1147.71,911,1165.56,906.18,1170.9,907Z"/><path class="cls-38" d="M746.16,323l11.51,48a7,7,0,0,0,3.73,4.63l21.11,10.17a2.69,2.69,0,0,1,1.51,2.1l2.4,19.25L799,405.55l-3.21-25.7a4.05,4.05,0,0,0-2.32-3.19l-18.74-8.75a3.53,3.53,0,0,1-1.45-1.22,3.76,3.76,0,0,1-.53-1.15l-18.09-70.19a.55.55,0,0,0-.52-.43.58.58,0,0,0-.58.37l-1.89,5.06-4.88,13.07A16.42,16.42,0,0,0,746.16,323Z"/><path class="cls-39" d="M751.62,300.35l17.11,66.9,4.5-.56a3.76,3.76,0,0,1-.53-1.15l-18.09-70.19a.55.55,0,0,0-.52-.43.58.58,0,0,0-.58.37Z"/><path class="cls-40" d="M796.1,514.91a3.9,3.9,0,0,0,4.36,3.45l11.74-1.46a3.91,3.91,0,0,0,3.38-4.42l-14.4-102.32c-.27-1.94-.55-3.88-.82-5.82a1.43,1.43,0,0,0-1.59-1.22l-13.25,1.66a1.43,1.43,0,0,0-1.25,1.57c.22,1.95.43,3.89.64,5.84Z"/><path class="cls-41" d="M784.91,412.19l16.27-2c-.27-1.94-.55-3.88-.82-5.82a1.43,1.43,0,0,0-1.59-1.22l-13.25,1.66a1.43,1.43,0,0,0-1.25,1.57C784.49,408.3,784.7,410.24,784.91,412.19Z"/><path class="cls-42" d="M831.61,347l-34.82,35a7,7,0,0,1-5.6,2l-23.32-2.32a2.73,2.73,0,0,0-2.39,1l-12.07,15.18L743.53,390l16.13-20.27a4.09,4.09,0,0,1,3.64-1.51l20.56,2.3a3.62,3.62,0,0,0,2.92-1l52-50.48a.58.58,0,0,1,.68-.1.6.6,0,0,1,.3.62l-1,5.3-2.64,13.71A16.36,16.36,0,0,1,831.61,347Z"/><path class="cls-43" d="M838.73,324.87l-49.45,48.19-3.55-2.82a3.54,3.54,0,0,0,1-.71l52-50.48a.58.58,0,0,1,.68-.1.6.6,0,0,1,.3.62Z"/><path class="cls-44" d="M689,484.84a3.89,3.89,0,0,1-5.52.68l-9.26-7.37a3.9,3.9,0,0,1-.58-5.53l65.59-79.83,3.73-4.55a1.43,1.43,0,0,1,2-.21l10.46,8.32a1.44,1.44,0,0,1,.24,2L752.05,403Z"/><path class="cls-45" d="M752.05,403l-12.83-10.21,3.73-4.55a1.43,1.43,0,0,1,2-.21l10.46,8.32a1.44,1.44,0,0,1,.24,2Z"/><path class="cls-43" d="M774.07,376a3.26,3.26,0,1,0,3.64-2.82A3.25,3.25,0,0,0,774.07,376Z"/><path class="cls-46" d="M689.1,476.26s11.43-7.41,10-13.28-3.08-1.39-5.56,0-1.82-8.85.6-11.43,4-4.52,4-4.52-4.46-3.51-9.1,2.2-5.25,17.61-10,22.4S685.71,480.59,689.1,476.26Z"/><path class="cls-46" d="M794.72,488.36c-.24-1.25-.5-2.5-.69-3.78-.57-3.87-2.24-12.6,1.82-15.22,4.67-3,3.08,1.82,4,5.12s6.85-4.81,6.74-8.93,0-7,0-7,5.39,1.54,5.12,10c-.21,6.5-3.92,11.68-5.84,17.59-1.82,5.61.71,13.81,2.51,19.22a39.41,39.41,0,0,1-10.4.42c-.9-.09-2.13,0-2.28.91.74-4.3-.17-10.78-.48-15.19A29.26,29.26,0,0,0,794.72,488.36Z"/><path class="cls-47" d="M671.47,872.57s-6.36,15.16-5.3,19.63a47.94,47.94,0,0,1-10.06-1.74,48.88,48.88,0,0,0,2.07-6.89,66.77,66.77,0,0,0,.42-8.07Z"/><path class="cls-18" d="M740.51,910.48a7.27,7.27,0,0,0-1.54,4.1,7.05,7.05,0,0,0,.46,2.75c1.39,4,3.57,4.51,5.92,8.74,1.44,2.58,1.17,3.36,2.49,4.52,1.73,1.54,3.83,1.63,5.66,1.65a91.46,91.46,0,0,0,13.08-.81q-4.38-6.15-9.34-12.48c-1.45-1.85-2.89-3.65-4.34-5.41l-8.59-3.17Z"/><path class="cls-48" d="M745.25,872.57s3.81,20.31.87,23.68c-2.5,3.37,1.21,1,1.21,1l4.43,3.86,7.91,9.35s.66-16.94,1.31-21.62,0-14.27,0-14.27Z"/><path class="cls-36" d="M766.34,657.31a296,296,0,0,1,9.88,45.22c7.74,56.3-8.71,58.09-5.64,120.48,1,19.92,2.21,56.63.6,57.64a18.49,18.49,0,0,1-2.52.1c-1.59,0-23.29,8.92-25.89,8.14-2.88-.5-13.3-28.7-10.88-45.47,1.7-11.87,1.21-24.61.22-50.09C732,789.2,721.39,713,721.39,713h0c-3.22,28.2-6.91,52.16-10.11,70.74-10.29,59.68-43.75,95.8-45.5,96.38-.34.14-3.48,1.28-6-.41A4.17,4.17,0,0,1,658.2,878c-.9-.7.26-59.59,10.47-103.91C683.48,709.78,677,694.73,681.72,666,685.78,641.13,766.34,657.31,766.34,657.31Z"/><path class="cls-16" d="M749,896.84c-2.32,0-4,2.06-5.31,6.92s-7.46,9.15-.26,8.12,12.43,10.09,15,14.21,9.48,7.76,9.31,3.74-3.22-5.89-4.08-10S754.27,896.75,749,896.84Z"/><path class="cls-49" d="M765.88,585.07c2.38,18.9,10,87.28,12.43,106.19C764.66,699.48,747.67,706,729.89,706c-1.78,0-6.22-40.61-8-40.75-2.13-.17-1.61,40.09-3.75,39.7-14.28-2.54-28.69-9.94-42-24.68-.27-18.19,7.22-44.11,10.08-62.07,1.95-12.28,4.58-25.16.38-36.85-4.26-11.88-15.39-23.12-11.24-35A71.39,71.39,0,0,1,706.55,541c1.45-2,15.21-4.86,17.59-4.17s4.44,2.19,6.68,3.24c11.12,5.23,24.84-.78,36.35,3.53,4.32,1.62,8,4.6,11.46,7.64q7.64,6.68,14.59,14.08c1.85-23.1-.39-38.31-.46-69.32.11,11.67,20.42.78,20.42.78s7.32,62.58,3.18,98.33c-9.35,2.42-25.1,3.3-33.53-1.43s-17-10.24-26.62-10.71"/><path class="cls-49" d="M684.3,568.24c-18-1.15-31.32-.55-49.34-1.71-2.9-.18-6.43-.83-7.34-3.59-.61-1.86.33-3.85,1.25-5.59C643.9,529,655.08,498.23,675,473c4.95,2,10.84,5.57,10.14,10.88a12.45,12.45,0,0,1-1.39,3.79c-10.32,20.9-16.77,35.68-24.44,57.69L706.55,541Z"/><path class="cls-46" d="M734.91,511.75c-1.37-10.51-9.68-17.25-11.49-18.69-7.59-6-9.13-6.64-11.74-7.14l-3.56-.54-.39,0c-2.09.13-8.33,2.57-9.47,3.36-3.63,2.55-1,20.63,10,43.1.44,1.9.87,3.81,1.3,5.71-9.58,1.68-12,3.41-12,4.79-.16,3,10.34,6.81,20.07,7.06,12.2.31,25.15-4.94,24.9-8.85-.1-1.59-2.4-3.55-11.26-5.47l-4.15-5.84C728.38,527.74,735.91,519.49,734.91,511.75Z"/><path class="cls-18" d="M711.68,478.53c3.83,3.74,4.76,10.24,3.63,14.92-.67,2.8-1.55,3.1-1.43,4.93.35,5.15,9.74,7.4,9.22,10-.38,1.86-5.26,1.18-6.1,3.51-.92,2.55,4.44,4.74,6.75,11.16.36,1,2.54,7.07-.26,10.64-2.62,3.33-8.46,2.54-15.06,1.68a52.62,52.62,0,0,1-14-3.76c-4.81-2.11-10-4.38-14.27-9.6a29.24,29.24,0,0,1-6.49-19.21c.66-13.76,12.16-25.51,24-27.38C699.58,475.11,707,473.94,711.68,478.53Z"/><path class="cls-50" d="M719.82,507.79c-2.76-1.66-4.87,1.9-3.57,5s5.69,5.06,8.34,3.21S723.55,510,719.82,507.79Z"/><path class="cls-49" d="M747.46,541.87c-3.75-1.79,2-.66-1.42-3-4,3.93-6.67-6.64-10.71-2.71-5-5-18.08,6.48-23.25,1.74-1.62-1.48-4.42.08-4.42.08-5.61-.11-10.52,2.78-13.23,4.18l5.65,5.59a32.79,32.79,0,0,0,7.27,5.93c3.41,1.82,7.35,2.37,11.19,2.82,10.3,1.21,20.9,1.87,30.88-.91,3.29-.91,7.11-3.16,6.7-6.55-.26-2.08-2.09-3.59-4-4.55S749.35,542.77,747.46,541.87Z"/><path class="cls-51" d="M893.45,258.92c8.68-2.21,48.06-50.56,48.06-50.56l-37-2.37s-6.33,18.91-11.83,23.61c-11,9.38-22,16.44-36.59,18.63C867.64,252.26,880.67,262.18,893.45,258.92Z"/><path class="cls-51" d="M776.55,355.58c8.67-2.21,48.06-50.55,48.06-50.55l-37-2.37s-6.34,18.9-11.83,23.6c-11,9.38-22,16.45-36.59,18.64C750.74,348.93,763.77,358.84,776.55,355.58Z"/><path class="cls-51" d="M893.45,456.89c8.68-2.22,48.06-50.56,48.06-50.56l-37-2.37s-6.33,18.91-11.83,23.61c-11,9.38-22,16.44-36.59,18.63C867.64,450.23,880.67,460.15,893.45,456.89Z"/><path class="cls-51" d="M1347.36,315.77c8.67-2.21,48.05-50.55,48.05-50.55l-37-2.38s-6.33,18.91-11.83,23.61c-11,9.38-22,16.44-36.58,18.64C1321.55,309.11,1334.57,319,1347.36,315.77Z"/><path class="cls-51" d="M1357.32,583.63c8.68-2.21,48.06-50.55,48.06-50.55l-37-2.37s-6.33,18.9-11.83,23.6c-11,9.38-22,16.45-36.59,18.64C1331.51,577,1344.54,586.89,1357.32,583.63Z"/><path class="cls-51" d="M1082.13,355.58c8.67-2.21,48.06-50.55,48.06-50.55l-37-2.37s-6.34,18.9-11.83,23.6c-11,9.38-22,16.45-36.59,18.64C1056.32,348.93,1069.35,358.84,1082.13,355.58Z"/></g></g></svg>