<svg width="38" height="35" viewBox="0 0 38 35" fill="none" xmlns="http://www.w3.org/2000/svg">
<ellipse cx="23.4625" cy="12.7736" rx="13.6676" ry="12.7033" fill="#80BCB5"/>
<g clip-path="url(#clip0_203_383)">
<path d="M25.1876 13.7554C25.0009 13.4706 24.892 13.2457 24.7363 13.0808C24.2539 12.5861 23.7559 12.1214 23.2579 11.6417C22.5577 10.9672 22.3087 10.9672 21.5928 11.6417C18.4649 14.6698 15.3369 17.6979 12.209 20.726C8.44298 24.3687 4.66143 28.0114 0.895437 31.6541C0.226273 32.2987 0.226273 32.4935 0.879875 33.1381C1.33117 33.5878 1.79803 34.0226 2.24933 34.4723C2.94961 35.1469 3.21417 35.1469 3.91445 34.4723C5.76632 32.6884 7.6182 30.9045 9.4545 29.1207C14.4655 24.2787 19.4764 19.4218 24.4873 14.5799C24.7363 14.325 24.9386 14.0402 25.1876 13.7554ZM28.9381 6.76982C28.7202 6.85976 28.5179 6.88974 28.409 6.99468C27.3974 7.95407 26.3703 8.89847 25.4211 9.91783C25.2654 10.0827 25.3277 10.6074 25.4833 10.8173C25.5922 10.9672 26.1836 10.9672 26.3548 10.8173C27.3974 9.88785 28.3934 8.91346 29.3738 7.9091C29.5294 7.75919 29.5294 7.38443 29.4672 7.15957C29.4049 6.99468 29.1248 6.90473 28.9381 6.76982ZM29.187 13.7854C29.8562 13.7854 30.5409 13.8453 31.1945 13.7554C31.4902 13.7104 31.9104 13.4106 31.9726 13.1558C32.0971 12.6761 31.677 12.4512 31.2101 12.4512C29.8873 12.4362 28.5801 12.4362 27.2574 12.4362C26.7749 12.4362 26.3859 12.6911 26.4793 13.1408C26.526 13.3956 26.9617 13.6954 27.2574 13.7404C27.8954 13.8603 28.549 13.7854 29.187 13.7854ZM22.9778 19.6617C22.9778 20.2913 22.9778 20.9059 22.9778 21.5355C22.9778 21.9852 23.1179 22.33 23.6626 22.345C24.2072 22.36 24.3628 22.0002 24.3784 21.5505C24.394 20.3063 24.4251 19.0471 24.3628 17.8028C24.3473 17.518 23.9582 17.0533 23.6781 17.0083C23.149 16.9334 22.9623 17.3531 22.9778 17.8628C22.9934 18.4624 22.9778 19.062 22.9778 19.6617ZM23.7248 7.14458C23.7092 6.49999 23.7248 5.84041 23.7092 5.19581C23.6937 4.77608 23.5381 4.44629 23.0401 4.44629C22.511 4.44629 22.3398 4.76109 22.3398 5.24079C22.3398 6.485 22.3398 7.72921 22.3398 8.98841C22.3398 9.45312 22.4954 9.7979 23.009 9.81289C23.5225 9.82788 23.7248 9.4831 23.7248 9.0184C23.7404 8.38879 23.7248 7.75919 23.7248 7.14458ZM16.224 13.1708C16.8776 13.1708 17.5156 13.1558 18.1692 13.1708C18.6516 13.1858 19.0718 12.9909 19.0095 12.5262C18.9629 12.2563 18.5116 11.8516 18.2314 11.8366C16.9242 11.7617 15.6015 11.7916 14.2787 11.8066C13.7963 11.8066 13.4072 12.0465 13.5317 12.5262C13.594 12.781 14.0142 13.0958 14.3098 13.1258C14.9167 13.2457 15.5859 13.1708 16.224 13.1708ZM16.9709 6.24515C16.7375 6.41005 16.4107 6.52997 16.3796 6.69487C16.3329 6.9647 16.4107 7.35445 16.5974 7.54933C17.4845 8.46375 18.4182 9.31821 19.3208 10.2176C19.6631 10.5474 20.0366 10.6674 20.4101 10.3376C20.8458 9.94781 20.628 9.58804 20.2701 9.24325C19.383 8.40378 18.5271 7.54933 17.6401 6.70986C17.4533 6.52997 17.2355 6.42504 16.9709 6.24515ZM30.1052 19.0471C30.0118 18.8222 29.9807 18.6423 29.8562 18.5224C28.8602 17.548 27.8798 16.5586 26.8372 15.6292C26.6816 15.4793 26.0902 15.5093 25.9813 15.6442C25.8257 15.8691 25.7634 16.3787 25.919 16.5436C26.8683 17.563 27.8954 18.5224 28.9225 19.4668C29.0626 19.6017 29.4205 19.6467 29.6228 19.5717C29.8251 19.4968 29.9496 19.2269 30.1052 19.0471Z" fill="#E4FAFF"/>
<path d="M25.1877 13.7558C24.9387 14.0407 24.752 14.3255 24.503 14.5653C19.492 19.4222 14.4811 24.2642 9.47013 29.1061C7.61826 30.89 5.78195 32.6739 3.93008 34.4577C3.22979 35.1323 2.96524 35.1323 2.26495 34.4577C1.79809 34.023 1.3468 33.5733 0.8955 33.1236C0.241898 32.479 0.241898 32.2841 0.911062 31.6395C4.67705 27.9968 8.44304 24.3541 12.2246 20.7114C15.337 17.6983 18.4649 14.6703 21.5929 11.6422C22.2932 10.9526 22.5422 10.9526 23.258 11.6422C23.756 12.1219 24.254 12.5866 24.7364 13.0813C24.892 13.2462 25.0009 13.471 25.1877 13.7558ZM23.3825 13.6359C23.0868 13.3661 22.76 13.0813 22.4643 12.8114C21.1571 14.0706 19.8499 15.3298 18.5894 16.5591C18.8695 16.8589 19.1652 17.1737 19.3986 17.4285C20.737 16.1693 22.0286 14.9251 23.3825 13.6359Z" fill="#054B57"/>
<path d="M28.9379 6.76953C29.1246 6.90445 29.4048 6.99439 29.4514 7.15928C29.5137 7.38414 29.5137 7.75891 29.3581 7.90881C28.3932 8.91317 27.3817 9.88756 26.339 10.817C26.1679 10.9669 25.5765 10.9519 25.4676 10.817C25.2964 10.6071 25.2497 10.0824 25.4053 9.91754C26.3546 8.91317 27.3817 7.95378 28.3932 6.99439C28.5177 6.88946 28.72 6.85947 28.9379 6.76953Z" fill="#054B57"/>
<path d="M29.1865 13.7853C28.5329 13.7853 27.8793 13.8453 27.2569 13.7553C26.9612 13.7104 26.5255 13.3956 26.4788 13.1557C26.3854 12.706 26.7744 12.4512 27.2569 12.4512C28.5796 12.4512 29.8868 12.4512 31.2096 12.4662C31.6765 12.4662 32.0966 12.691 31.9721 13.1707C31.9099 13.4256 31.4897 13.7254 31.194 13.7703C30.5404 13.8453 29.8557 13.7853 29.1865 13.7853Z" fill="#054B57"/>
<path d="M22.9775 19.6618C22.9775 19.0622 22.993 18.4625 22.9775 17.8629C22.9619 17.3682 23.1486 16.9335 23.6777 17.0085C23.9579 17.0534 24.3469 17.5181 24.3625 17.803C24.4403 19.0472 24.3936 20.2914 24.378 21.5506C24.378 22.0003 24.2068 22.3451 23.6622 22.3451C23.1175 22.3301 22.9775 21.9853 22.9775 21.5356C22.9775 20.906 22.9775 20.2764 22.9775 19.6618Z" fill="#054B57"/>
<path d="M23.7248 7.14458C23.7248 7.77418 23.7248 8.38879 23.7248 9.0184C23.7248 9.4831 23.507 9.82788 23.009 9.81289C22.4954 9.7979 22.3243 9.45312 22.3398 8.98841C22.3554 7.7442 22.3554 6.49999 22.3398 5.24079C22.3398 4.77608 22.511 4.46128 23.0401 4.44629C23.5381 4.44629 23.7093 4.77608 23.7093 5.19581C23.7248 5.84041 23.7248 6.485 23.7248 7.14458Z" fill="#054B57"/>
<path d="M16.2237 13.1706C15.5701 13.1706 14.9165 13.2306 14.2941 13.1406C13.9984 13.0957 13.5938 12.7959 13.516 12.541C13.3915 12.0613 13.7961 11.8365 14.2629 11.8215C15.5857 11.8065 16.9085 11.7765 18.2157 11.8515C18.4958 11.8664 18.9626 12.2712 18.9938 12.541C19.056 12.9907 18.6358 13.1856 18.1534 13.1856C17.5154 13.1706 16.8773 13.1856 16.2237 13.1706Z" fill="#054B57"/>
<path d="M16.9701 6.24512C17.2346 6.425 17.4525 6.52994 17.6393 6.70982C18.5263 7.54929 19.3978 8.40375 20.2692 9.24322C20.6116 9.57301 20.845 9.94777 20.4093 10.3375C20.0358 10.6673 19.6623 10.5474 19.3199 10.2176C18.4174 9.33316 17.4681 8.46371 16.5966 7.54929C16.4099 7.35442 16.3476 6.97965 16.3787 6.69483C16.4099 6.52994 16.7522 6.41001 16.9701 6.24512Z" fill="#054B57"/>
<path d="M30.1054 19.047C29.9498 19.2269 29.8253 19.4967 29.623 19.5717C29.4207 19.6466 29.0628 19.6016 28.9227 19.4667C27.8956 18.5223 26.8841 17.5629 25.9192 16.5436C25.7636 16.3787 25.8259 15.869 25.9815 15.6441C26.0749 15.5092 26.6662 15.4942 26.8374 15.6292C27.88 16.5586 28.876 17.5479 29.8564 18.5223C29.9653 18.6273 29.9965 18.8221 30.1054 19.047Z" fill="#054B57"/>
<path d="M23.3819 13.636C22.0281 14.9252 20.7364 16.1544 19.3981 17.4286C19.1647 17.1738 18.869 16.844 18.5889 16.5592C19.8649 15.3299 21.1566 14.0707 22.4638 12.8115C22.7595 13.0814 23.0863 13.3662 23.3819 13.636Z" fill="#E4FAFF"/>
</g>
<defs>
<clipPath id="clip0_203_383">
<rect width="31.6063" height="30.5207" fill="white" transform="translate(0.397461 4.44629)"/>
</clipPath>
</defs>
</svg>
